<?xml version="1.0" encoding="UTF-8"?>
<svg id="Helper" xmlns="http://www.w3.org/2000/svg" viewBox="0 0 99.21 99.21">
  <defs>
    <style>
      .cls-1 {
        stroke: #81be3f;
        stroke-width: 4px;
      }

      .cls-1, .cls-2, .cls-3, .cls-4 {
        stroke-miterlimit: 10;
      }

      .cls-1, .cls-3, .cls-4 {
        fill: none;
        stroke-linecap: round;
      }

      .cls-2 {
        fill: #fbf6f2;
        stroke: #a7dd6e;
      }

      .cls-2, .cls-3 {
        stroke-width: 5px;
      }

      .cls-3 {
        stroke: #fbb03b;
      }

      .cls-4 {
        stroke: #fcc;
        stroke-width: 2px;
      }

      .cls-5 {
        fill: #81be3f;
      }
    </style>
  </defs>
  <g id="happy">
    <g>
      <line class="cls-3" x1="33.91" y1="18.56" x2="33.91" y2="18.56"/>
      <line class="cls-3" x1="30.38" y1="12.45" x2="27.72" y2="7.84"/>
    </g>
    <g>
      <line class="cls-3" x1="63.71" y1="18.56" x2="63.71" y2="18.56"/>
      <line class="cls-3" x1="67.24" y1="12.45" x2="69.9" y2="7.84"/>
    </g>
    <g>
      <line class="cls-3" x1="49.1" y1="14.9" x2="49.1" y2="14.9"/>
      <line class="cls-3" x1="49.1" y1="7.84" x2="49.1" y2="3.88"/>
    </g>
    <circle class="cls-2" cx="49.1" cy="60.18" r="35.1"/>
    <path class="cls-5" d="M62.82,61.18c0,7.58-6.14,13.72-13.72,13.72s-13.72-6.14-13.72-13.72"/>
    <path class="cls-1" d="M67.5,54.17c0-4.4-2.93-7.96-6.54-7.96s-6.54,3.56-6.54,7.96"/>
    <path class="cls-1" d="M43.79,54.17c0-4.4-2.93-7.96-6.54-7.96s-6.54,3.56-6.54,7.96"/>
    <g>
      <line class="cls-4" x1="24.3" y1="57.77" x2="20.66" y2="61.4"/>
      <line class="cls-4" x1="32.3" y1="57.77" x2="28.66" y2="61.4"/>
      <line class="cls-4" x1="28.23" y1="57.83" x2="24.59" y2="61.47"/>
    </g>
    <g>
      <line class="cls-4" x1="69.36" y1="57.8" x2="65.72" y2="61.44"/>
      <line class="cls-4" x1="77.36" y1="57.8" x2="73.72" y2="61.44"/>
      <line class="cls-4" x1="73.3" y1="57.87" x2="69.66" y2="61.51"/>
    </g>
  </g>
</svg>