<?xml version="1.0" encoding="UTF-8"?>
<svg id="Layer_2" data-name="Layer 2" xmlns="http://www.w3.org/2000/svg" viewBox="0 0 278.61 78.15">
  <defs>
    <style>
      .cls-1 {
        fill: #83bf3b;
      }

      .cls-2 {
        fill: #a9de6c;
      }
    </style>
  </defs>
  <g id="Layer_1-2" data-name="Layer 1">
    <g>
      <g>
        <path class="cls-1" d="M10.58,61.42c-2.94,0-5.18-.37-6.7-1.11-1.53-.74-2.56-1.96-3.08-3.64-.53-1.68-.79-3.93-.79-6.72V11.48c0-2.85,.26-5.12,.79-6.79,.53-1.67,1.56-2.87,3.08-3.6,1.53-.73,3.76-1.09,6.7-1.09H30.71c.69,0,1.2,.11,1.54,.34,.74,.51,1.51,1.13,2.31,1.84,.8,.71,1.64,1.57,2.53,2.57,.28,.37,.43,.67,.43,.9,0,.26-.14,.54-.43,.86-.89,1-1.73,1.86-2.53,2.57-.8,.71-1.57,1.33-2.31,1.84-.4,.23-.91,.34-1.54,.34h-11.99c-1.88,0-3.17,.4-3.85,1.2-.69,.8-1.03,2.17-1.03,4.11v8.31h15.38c.69,0,1.2,.11,1.54,.34,.74,.51,1.51,1.13,2.31,1.84,.8,.71,1.64,1.57,2.53,2.57,.28,.37,.43,.67,.43,.9,0,.26-.14,.54-.43,.86-.89,1-1.73,1.86-2.53,2.57-.8,.71-1.57,1.33-2.31,1.84-.4,.23-.91,.34-1.54,.34H13.84v8.65c0,1.91,.34,3.28,1.03,4.11,.69,.83,1.97,1.24,3.85,1.24h13.41c.69,0,1.2,.11,1.54,.34,.74,.51,1.51,1.13,2.31,1.84,.8,.71,1.64,1.57,2.53,2.57,.28,.37,.43,.67,.43,.9,0,.26-.14,.54-.43,.86-.89,1-1.73,1.86-2.53,2.57-.8,.71-1.57,1.33-2.31,1.84-.4,.23-.91,.34-1.54,.34H10.58Z"/>
        <path class="cls-2" d="M91.41,56.97c-3.1,0-5.8-.5-8.1-1.5s-4.08-2.56-5.34-4.67c-1.27-2.11-1.9-4.84-1.9-8.18,0-5.01,1.29-8.8,3.86-11.38,2.57-2.57,5.99-3.86,10.25-3.86,2.77,0,5.12,.5,7.04,1.49s3.38,2.36,4.38,4.1c1,1.74,1.5,3.74,1.5,5.98s-.56,3.71-1.68,4.57c-1.12,.86-2.75,1.29-4.9,1.29h-11.82c.15,1.89,.84,3.33,2.08,4.32s2.92,1.49,5.05,1.49c1.69,0,3.04-.25,4.06-.76,1.02-.5,1.73-.9,2.13-1.2,.35-.26,.74-.38,1.18-.36,.35,0,.85,.07,1.5,.21s1.3,.39,1.94,.76c.46,.24,.69,.57,.69,.99,0,.24-.05,.58-.14,1.02-.06,.26-.15,.63-.28,1.12-.13,.49-.29,.94-.5,1.36-.11,.2-.28,.4-.52,.58-.37,.26-.96,.6-1.78,1.02-.82,.42-1.93,.79-3.35,1.12s-3.2,.48-5.37,.48Zm-6.78-17.79h8.98c.94,0,1.4-.43,1.4-1.29,0-1.3-.41-2.4-1.23-3.29-.82-.89-2.04-1.34-3.68-1.34-1.78,0-3.09,.57-3.93,1.71-.84,1.14-1.35,2.54-1.56,4.21Z"/>
        <path class="cls-1" d="M168.02,61.17c-4.18,0-7.83-.8-10.92-2.41-3.1-1.61-5.5-4.03-7.2-7.27-1.7-3.24-2.55-7.28-2.55-12.13,0-7.7,1.88-13.45,5.64-17.24,3.76-3.79,9-5.69,15.72-5.69,6.3,0,11.28,1.86,14.94,5.57s5.49,9.21,5.49,16.49c0,5.15-.85,9.4-2.56,12.75-1.71,3.35-4.14,5.84-7.3,7.48-3.16,1.64-6.91,2.46-11.26,2.46Zm.18-8.15c3.62,0,6.31-1.3,8.06-3.89s2.63-5.96,2.63-10.11c0-4.81-.82-8.42-2.47-10.83s-4.3-3.62-7.97-3.62c-7.22,0-10.83,4.76-10.83,14.27,0,4.24,.87,7.67,2.61,10.27,1.74,2.61,4.4,3.91,7.98,3.91Z"/>
        <path class="cls-1" d="M224.24,41.7v17.62c0,.6-.13,1.02-.38,1.25-.25,.23-.68,.35-1.28,.35h-6.22c-.6,0-1.03-.12-1.28-.35-.25-.23-.38-.65-.38-1.25v-16.05c0-2.19-.46-3.79-1.39-4.8-.93-1.01-2.18-1.51-3.77-1.51s-2.81,.34-3.67,1.03c-.85,.68-1.51,1.55-1.98,2.59v18.74c0,.6-.13,1.02-.38,1.25-.25,.23-.68,.35-1.28,.35h-6.22c-.6,0-1.03-.12-1.28-.35-.25-.23-.38-.65-.38-1.25v-25.29c0-.48,.1-.85,.3-1.12,.42-.56,.93-1.14,1.52-1.72,.59-.58,1.32-1.21,2.19-1.87,.26-.2,.51-.3,.75-.3,.22,0,.47,.1,.75,.3,.84,.66,1.57,1.3,2.17,1.9s1.14,1.23,1.6,1.87h.15c.34-.44,.85-.96,1.54-1.55,.68-.59,1.64-1.12,2.88-1.58,1.24-.46,2.82-.69,4.75-.69s3.69,.38,5.4,1.15c1.71,.76,3.11,2.05,4.21,3.86s1.64,4.28,1.64,7.42Z"/>
        <path class="cls-1" d="M235.23,60.19c-.42,.18-.72,.27-.91,.27s-.37-.07-.57-.21c-.46-.32-.99-1.11-1.58-2.37-.59-1.26-.89-3.19-.89-5.81V17.14c0-.48,.1-.85,.3-1.12,.84-1.11,2.08-2.3,3.71-3.59,.28-.2,.53-.3,.75-.3,.26,0,.51,.1,.75,.3,.86,.66,1.59,1.29,2.19,1.87,.59,.58,1.1,1.16,1.52,1.72,.2,.26,.3,.63,.3,1.12V50.24c0,1.33,.11,2.46,.33,3.39s.48,1.69,.78,2.25c.34,.66,.21,1.14-.39,1.42l-6.31,2.9Z"/>
        <path class="cls-1" d="M250.64,76.25c-.74,0-1.31-.08-1.69-.23s-.7-.34-.97-.56c-.52-.5-1.09-1.21-1.69-2.11-.14-.22-.29-.48-.45-.77-.16-.29-.24-.54-.24-.74,0-.22,.05-.42,.15-.6s.22-.35,.36-.51c.32-.42,.71-.86,1.18-1.31s.85-.81,1.18-1.07c.22-.18,.4-.3,.54-.35,.14-.05,.26-.08,.36-.08s.25,.02,.45,.06c.2,.04,.5,.06,.91,.06,1.39,0,2.84-.45,4.35-1.36s3-2.61,4.47-5.1c-1.53-1.41-3.03-3.17-4.51-5.3-1.48-2.12-2.81-4.43-4-6.91-1.19-2.48-2.14-4.96-2.85-7.44s-1.07-4.76-1.07-6.85c0-.44,.11-.79,.33-1.06,.93-1.15,2.24-2.34,3.95-3.59,.3-.2,.57-.3,.81-.3,.26,0,.53,.1,.81,.3,.93,.66,1.7,1.29,2.34,1.87,.63,.58,1.17,1.16,1.61,1.72,.22,.26,.33,.63,.33,1.12v-.12c0,1.59,.19,3.27,.57,5.04,.38,1.77,.91,3.5,1.57,5.17,.66,1.68,1.41,3.2,2.23,4.56s1.68,2.44,2.56,3.24h.15c.4-.76,.85-1.87,1.34-3.3,.49-1.44,.96-3.04,1.4-4.8,.44-1.76,.8-3.51,1.09-5.25,.28-1.74,.42-3.28,.42-4.63v.09c0-.48,.1-.85,.3-1.12,.46-.56,1.01-1.14,1.63-1.72,.62-.58,1.38-1.21,2.26-1.87,.28-.2,.54-.3,.78-.3,.28,0,.54,.1,.78,.3,.91,.66,1.67,1.29,2.29,1.87,.62,.58,1.16,1.16,1.6,1.72,.2,.26,.3,.62,.3,1.09-.02,1.83-.37,4.22-1.06,7.17-.68,2.95-1.68,6.14-2.99,9.58s-2.9,6.81-4.77,10.11c-2.8,4.97-5.81,8.59-9.05,10.86-3.24,2.27-6.61,3.41-10.11,3.41Zm-3.53-41.19v0Zm31.5,0v0Z"/>
      </g>
      <path class="cls-2" d="M141.96,40.2c-2.76-5.73-8.57-14.08-17.24-21.05-8.73-7.02-20.73-12.94-35.71-12.94s-26.98,5.91-35.71,12.94c-8.68,6.99-14.48,15.32-17.24,21.05-.61,1.27-.61,2.68,0,3.95,1.63,3.39,4.33,7.69,8.05,12.07,.05-.01,.11-.03,.15-.03,.07,0,.19,.01,.34,.04,.15,.03,.37,.04,.67,.04,1.03,0,2.11-.32,3.23-.97,1.12-.65,2.23-1.87,3.32-3.65-1.14-1.01-2.25-2.27-3.35-3.79-1.1-1.52-2.09-3.17-2.97-4.95-.88-1.78-1.59-3.56-2.12-5.33-.53-1.77-.8-3.41-.8-4.91,0-.32,.08-.57,.25-.76,.69-.82,1.67-1.68,2.94-2.57,.22-.14,.43-.22,.61-.22,.19,0,.4,.07,.61,.22,.69,.48,1.27,.92,1.74,1.34,.47,.42,.87,.83,1.2,1.23,.16,.19,.25,.45,.25,.8v-.09c0,1.14,.14,2.34,.43,3.61,.28,1.27,.67,2.51,1.17,3.71,.49,1.2,1.05,2.29,1.66,3.27,.61,.97,1.25,1.75,1.9,2.32h.11c.3-.55,.63-1.34,1-2.37,.37-1.03,.71-2.18,1.04-3.44,.33-1.26,.6-2.52,.81-3.76,.21-1.25,.31-2.35,.31-3.32v.06c0-.35,.07-.61,.22-.8,.34-.4,.75-.81,1.21-1.23,.46-.42,1.02-.86,1.68-1.34,.21-.14,.4-.22,.58-.22,.21,0,.4,.07,.58,.22,.67,.48,1.24,.92,1.7,1.34,.46,.42,.86,.83,1.19,1.23,.15,.19,.22,.45,.22,.78-.01,1.31-.28,3.02-.78,5.14-.51,2.11-1.25,4.4-2.22,6.87-.97,2.47-2.15,4.88-3.54,7.24-2.08,3.56-4.32,6.16-6.72,7.78-1.18,.8-2.38,1.4-3.6,1.8,1.32,1.25,2.71,2.49,4.2,3.68,8.73,7.02,20.73,12.94,35.71,12.94s26.98-5.91,35.71-12.94c8.68-6.99,14.48-15.32,17.24-21.05,.61-1.27,.61-2.68,0-3.95Zm-29.38,2.57c-.33,12.63-10.84,22.61-23.48,22.28-12.63-.33-22.61-10.84-22.28-23.48,.33-12.63,10.84-22.61,23.48-22.28,12.63,.33,22.61,10.84,22.28,23.48Zm21.02,9.98c-1.17,1.31-2.67,2.27-4.5,2.86-1.83,.59-3.73,.89-5.73,.89-1.89,0-3.45-.16-4.7-.48-1.24-.32-2.24-.7-2.99-1.15-.75-.45-1.34-.86-1.76-1.23-.32-.3-.35-.63-.11-1.01l2.7-3.99c.39-.56,.83-.6,1.32-.11,.51,.49,1.2,.97,2.08,1.44,.87,.47,1.96,.7,3.27,.7,1.16,0,2.12-.2,2.87-.6s1.12-.97,1.12-1.73c0-.53-.17-.96-.5-1.3-.34-.33-.93-.68-1.77-1.03-.85-.35-2.03-.8-3.55-1.35-2.24-.81-3.93-1.79-5.08-2.94-1.15-1.15-1.72-2.82-1.72-5.03,0-2.03,.56-3.68,1.68-4.95,1.12-1.27,2.56-2.2,4.31-2.79,1.75-.59,3.58-.89,5.49-.89,2.42,0,4.11,.22,5.09,.67,.98,.45,1.61,.8,1.89,1.05,.26,.23,.45,.49,.56,.79,.23,.69,.41,1.6,.53,2.73,.07,.65-.1,1.08-.5,1.3-.21,.12-.55,.26-1.01,.4-.46,.14-.92,.26-1.38,.37-.46,.11-.8,.16-1.03,.16-.07,0-.15-.02-.22-.07-.08-.04-.22-.15-.41-.33-.23-.23-.62-.49-1.18-.79-.56-.3-1.32-.45-2.29-.45s-1.75,.15-2.39,.46c-.64,.31-.97,.85-.97,1.63,0,.85,.41,1.48,1.23,1.9,.82,.42,2.17,.97,4.06,1.64,1.48,.51,2.77,1.07,3.88,1.68,1.1,.61,1.95,1.4,2.55,2.38,.6,.98,.9,2.3,.9,3.96,0,2.15-.59,3.89-1.76,5.2Z"/>
    </g>
  </g>
</svg>