<?xml version="1.0" encoding="UTF-8"?>
<svg id="Layer_2" data-name="Layer 2" xmlns="http://www.w3.org/2000/svg" viewBox="0 0 93.22 61.42">
  <defs>
    <style>
      .cls-1 {
        fill: #83bf3b;
      }
    </style>
  </defs>
  <g id="Layer_1-2" data-name="Layer 1">
    <g>
      <path class="cls-1" d="M59.54,1.29c-9.45,0-17.01,4.72-22.52,10.33-5.47,5.57-9.13,12.22-10.87,16.8-.39,1.01-.39,2.14,0,3.15,1.74,4.57,5.4,11.24,10.87,16.8,5.51,5.6,13.07,10.33,22.52,10.33s17.01-4.72,22.52-10.33c5.47-5.57,9.13-12.22,10.87-16.8,.39-1.01,.39-2.14,0-3.15-1.74-4.57-5.4-11.24-10.87-16.8-5.51-5.6-13.07-10.33-22.52-10.33Zm-15.03,28.7c0-8.3,6.73-15.03,15.03-15.03s15.03,6.73,15.03,15.03-6.73,15.03-15.03,15.03-15.03-6.73-15.03-15.03Z"/>
      <path class="cls-1" d="M10.58,61.42c-2.94,0-5.18-.37-6.7-1.11-1.53-.74-2.56-1.96-3.08-3.64-.53-1.68-.79-3.93-.79-6.72V11.48c0-2.85,.26-5.12,.79-6.79,.53-1.67,1.56-2.87,3.08-3.6,1.53-.73,3.76-1.09,6.7-1.09H30.71c.69,0,1.2,.11,1.54,.34,.74,.51,1.51,1.13,2.31,1.84,.8,.71,1.64,1.57,2.53,2.57,.28,.37,.43,.67,.43,.9,0,.26-.14,.54-.43,.86-.89,1-1.73,1.86-2.53,2.57-.8,.71-1.57,1.33-2.31,1.84-.4,.23-.91,.34-1.54,.34h-11.99c-1.88,0-3.17,.4-3.85,1.2-.69,.8-1.03,2.17-1.03,4.11v8.31h15.38c.69,0,1.2,.11,1.54,.34,.74,.51,1.51,1.13,2.31,1.84,.8,.71,1.64,1.57,2.53,2.57,.28,.37,.43,.67,.43,.9,0,.26-.14,.54-.43,.86-.89,1-1.73,1.86-2.53,2.57-.8,.71-1.57,1.33-2.31,1.84-.4,.23-.91,.34-1.54,.34H13.84v8.65c0,1.91,.34,3.28,1.03,4.11,.69,.83,1.97,1.24,3.85,1.24h13.41c.69,0,1.2,.11,1.54,.34,.74,.51,1.51,1.13,2.31,1.84,.8,.71,1.64,1.57,2.53,2.57,.28,.37,.43,.67,.43,.9,0,.26-.14,.54-.43,.86-.89,1-1.73,1.86-2.53,2.57-.8,.71-1.57,1.33-2.31,1.84-.4,.23-.91,.34-1.54,.34H10.58Z"/>
    </g>
  </g>
</svg>